<mxfile host="app.diagrams.net" agent="Mozilla/5.0 (Windows NT 10.0; Win64; x64) AppleWebKit/537.36 (KHTML, like Gecko) Chrome/132.0.0.0 Safari/537.36" version="26.0.8">
  <diagram name="Pagina-1" id="W84g3DYpnpuc2Jj2wCSy">
    <mxGraphModel grid="1" page="1" gridSize="10" guides="1" tooltips="1" connect="1" arrows="1" fold="1" pageScale="1" pageWidth="1169" pageHeight="827" math="0" shadow="1">
      <root>
        <mxCell id="0" />
        <mxCell id="1" parent="0" />
        <mxCell id="FoN-SUB8W7ktu8D8JvVk-7" value="&lt;div style=&quot;&quot;&gt;&lt;b style=&quot;background-color: transparent; color: light-dark(rgb(0, 0, 0), rgb(255, 255, 255));&quot;&gt;Data Exploration and Validation Module&lt;/b&gt;&lt;/div&gt;&lt;div style=&quot;&quot;&gt;&lt;b style=&quot;background-color: transparent; color: light-dark(rgb(0, 0, 0), rgb(255, 255, 255));&quot;&gt;&lt;br&gt;&lt;/b&gt;&lt;/div&gt;&lt;div&gt;&lt;div style=&quot;text-align: left;&quot;&gt;&lt;span style=&quot;background-color: transparent; color: light-dark(rgb(0, 0, 0), rgb(255, 255, 255));&quot;&gt;- load_data&lt;/span&gt;&lt;/div&gt;&lt;span style=&quot;background-color: transparent; color: light-dark(rgb(0, 0, 0), rgb(255, 255, 255));&quot;&gt;&lt;div style=&quot;text-align: left;&quot;&gt;&lt;span style=&quot;background-color: transparent; color: light-dark(rgb(0, 0, 0), rgb(255, 255, 255));&quot;&gt;- display_data_overview&lt;/span&gt;&lt;/div&gt;&lt;/span&gt;&lt;span style=&quot;background-color: transparent; color: light-dark(rgb(0, 0, 0), rgb(255, 255, 255));&quot;&gt;&lt;div style=&quot;text-align: left;&quot;&gt;&lt;span style=&quot;background-color: transparent; color: light-dark(rgb(0, 0, 0), rgb(255, 255, 255));&quot;&gt;- check_for_missing_values&lt;/span&gt;&lt;/div&gt;&lt;/span&gt;&lt;span style=&quot;background-color: transparent; color: light-dark(rgb(0, 0, 0), rgb(255, 255, 255));&quot;&gt;&lt;div style=&quot;text-align: left;&quot;&gt;&lt;span style=&quot;background-color: transparent; color: light-dark(rgb(0, 0, 0), rgb(255, 255, 255));&quot;&gt;- analyze_numerical_features&lt;/span&gt;&lt;/div&gt;&lt;div style=&quot;text-align: left;&quot;&gt;&lt;span style=&quot;background-color: transparent; color: light-dark(rgb(0, 0, 0), rgb(255, 255, 255));&quot;&gt;- analyze_categorical_features&lt;/span&gt;&lt;/div&gt;&lt;/span&gt;&lt;span style=&quot;background-color: transparent; color: light-dark(rgb(0, 0, 0), rgb(255, 255, 255));&quot;&gt;&lt;div style=&quot;text-align: left;&quot;&gt;&lt;span style=&quot;background-color: transparent; color: light-dark(rgb(0, 0, 0), rgb(255, 255, 255));&quot;&gt;- detect_outliers&lt;/span&gt;&lt;/div&gt;&lt;div style=&quot;text-align: left;&quot;&gt;&lt;span style=&quot;background-color: transparent; color: light-dark(rgb(0, 0, 0), rgb(255, 255, 255));&quot;&gt;- check_balance_of_target_variable&lt;/span&gt;&lt;/div&gt;&lt;/span&gt;&lt;span style=&quot;background-color: transparent; color: light-dark(rgb(0, 0, 0), rgb(255, 255, 255));&quot;&gt;&lt;div style=&quot;text-align: left;&quot;&gt;&lt;br&gt;&lt;/div&gt;&lt;/span&gt;&lt;/div&gt;&lt;div style=&quot;&quot;&gt;&lt;br&gt;&lt;/div&gt;&lt;div style=&quot;&quot;&gt;&lt;br&gt;&lt;/div&gt;" style="shape=module;align=center;spacingLeft=20;align=center;verticalAlign=top;whiteSpace=wrap;html=1;flipH=0;flipV=0;fillColor=#dae8fc;strokeColor=#6c8ebf;strokeWidth=2;" vertex="1" parent="1">
          <mxGeometry x="-3490" y="360" width="290" height="150" as="geometry" />
        </mxCell>
        <mxCell id="FoN-SUB8W7ktu8D8JvVk-9" value="&lt;div style=&quot;&quot;&gt;&lt;b style=&quot;background-color: transparent; color: light-dark(rgb(0, 0, 0), rgb(255, 255, 255));&quot;&gt;Data Wrangling Module&lt;/b&gt;&lt;/div&gt;&lt;div style=&quot;&quot;&gt;&lt;b style=&quot;background-color: transparent; color: light-dark(rgb(0, 0, 0), rgb(255, 255, 255));&quot;&gt;&lt;br&gt;&lt;/b&gt;&lt;/div&gt;&lt;div&gt;&lt;div style=&quot;text-align: left;&quot;&gt;&lt;span style=&quot;background-color: transparent; color: light-dark(rgb(0, 0, 0), rgb(255, 255, 255));&quot;&gt;- handle_missing_values&lt;/span&gt;&lt;/div&gt;&lt;span style=&quot;background-color: transparent; color: light-dark(rgb(0, 0, 0), rgb(255, 255, 255));&quot;&gt;&lt;div style=&quot;text-align: left;&quot;&gt;&lt;span style=&quot;background-color: transparent; color: light-dark(rgb(0, 0, 0), rgb(255, 255, 255));&quot;&gt;- encode_categorical_variables&lt;/span&gt;&lt;/div&gt;&lt;/span&gt;&lt;span style=&quot;background-color: transparent; color: light-dark(rgb(0, 0, 0), rgb(255, 255, 255));&quot;&gt;&lt;div style=&quot;text-align: left;&quot;&gt;&lt;span style=&quot;background-color: transparent; color: light-dark(rgb(0, 0, 0), rgb(255, 255, 255));&quot;&gt;- split_data_into_train_val_test&lt;/span&gt;&lt;/div&gt;&lt;/span&gt;&lt;span style=&quot;background-color: transparent; color: light-dark(rgb(0, 0, 0), rgb(255, 255, 255));&quot;&gt;&lt;div style=&quot;text-align: left;&quot;&gt;&lt;span style=&quot;background-color: transparent; color: light-dark(rgb(0, 0, 0), rgb(255, 255, 255));&quot;&gt;- scale_numerical_features&lt;/span&gt;&lt;/div&gt;&lt;/span&gt;&lt;span style=&quot;background-color: transparent; color: light-dark(rgb(0, 0, 0), rgb(255, 255, 255));&quot;&gt;&lt;div style=&quot;text-align: left;&quot;&gt;&lt;span style=&quot;background-color: transparent; color: light-dark(rgb(0, 0, 0), rgb(255, 255, 255));&quot;&gt;- address_class_imbalance&lt;/span&gt;&lt;/div&gt;&lt;/span&gt;&lt;span style=&quot;background-color: transparent; color: light-dark(rgb(0, 0, 0), rgb(255, 255, 255));&quot;&gt;&lt;div style=&quot;text-align: left;&quot;&gt;&lt;span style=&quot;background-color: transparent; color: light-dark(rgb(0, 0, 0), rgb(255, 255, 255));&quot;&gt;- handle_outliers&lt;/span&gt;&lt;/div&gt;&lt;/span&gt;&lt;span style=&quot;background-color: transparent; color: light-dark(rgb(0, 0, 0), rgb(255, 255, 255));&quot;&gt;&lt;div style=&quot;text-align: left;&quot;&gt;&lt;span style=&quot;background-color: transparent; color: light-dark(rgb(0, 0, 0), rgb(255, 255, 255));&quot;&gt;- save_encoder&lt;/span&gt;&lt;/div&gt;&lt;div style=&quot;text-align: left;&quot;&gt;&lt;span style=&quot;background-color: transparent; color: light-dark(rgb(0, 0, 0), rgb(255, 255, 255));&quot;&gt;- save_scaler&lt;/span&gt;&lt;/div&gt;&lt;/span&gt;&lt;span style=&quot;background-color: transparent; color: light-dark(rgb(0, 0, 0), rgb(255, 255, 255));&quot;&gt;&lt;div style=&quot;text-align: left;&quot;&gt;&lt;br&gt;&lt;/div&gt;&lt;/span&gt;&lt;/div&gt;&lt;div style=&quot;&quot;&gt;&lt;br&gt;&lt;/div&gt;&lt;div style=&quot;&quot;&gt;&lt;br&gt;&lt;/div&gt;" style="shape=module;align=center;spacingLeft=20;align=center;verticalAlign=top;whiteSpace=wrap;html=1;fillColor=#dae8fc;strokeColor=#6c8ebf;strokeWidth=2;" vertex="1" parent="1">
          <mxGeometry x="-3090" y="355" width="250" height="160" as="geometry" />
        </mxCell>
        <mxCell id="FoN-SUB8W7ktu8D8JvVk-10" value="&lt;div style=&quot;&quot;&gt;&lt;b style=&quot;background-color: transparent; color: light-dark(rgb(0, 0, 0), rgb(255, 255, 255));&quot;&gt;Model Engineering Module&lt;/b&gt;&lt;br&gt;&lt;b&gt;&lt;br&gt;&lt;/b&gt;&lt;/div&gt;&lt;div&gt;&lt;div style=&quot;text-align: left;&quot;&gt;&lt;span style=&quot;background-color: transparent; color: light-dark(rgb(0, 0, 0), rgb(255, 255, 255));&quot;&gt;- inizialize_Neptune_runs&lt;/span&gt;&lt;/div&gt;&lt;div style=&quot;text-align: left;&quot;&gt;&lt;span style=&quot;background-color: transparent; color: light-dark(rgb(0, 0, 0), rgb(255, 255, 255));&quot;&gt;- stop_Neptune_runs&lt;/span&gt;&lt;/div&gt;&lt;div style=&quot;text-align: left;&quot;&gt;&lt;span style=&quot;background-color: transparent; color: light-dark(rgb(0, 0, 0), rgb(255, 255, 255));&quot;&gt;- initialize_models [Logistic Regression, Random Forest, XGBoost]&lt;/span&gt;&lt;/div&gt;&lt;div style=&quot;text-align: left;&quot;&gt;- train_models [&lt;span style=&quot;background-color: transparent; color: light-dark(rgb(0, 0, 0), rgb(255, 255, 255));&quot;&gt;Logistic Regression, Random Forest, XGBoost]&lt;/span&gt;&lt;/div&gt;&lt;div style=&quot;text-align: left;&quot;&gt;- evaluate_models_on_validation_data&lt;/div&gt;&lt;div style=&quot;text-align: left;&quot;&gt;- perform_hyperparameter_tuning_with_GridSearch&lt;/div&gt;&lt;div style=&quot;text-align: left;&quot;&gt;- perform_Hyperparameter_Tuning_with_RandomSearch&lt;/div&gt;&lt;div style=&quot;text-align: left;&quot;&gt;- perform_hyperparameter_tuning_with_Optuna&amp;nbsp;&lt;/div&gt;&lt;div style=&quot;text-align: left;&quot;&gt;- compare_best_modesl_obtained_with_hyperparameter_tuning_processes&lt;/div&gt;&lt;div style=&quot;text-align: left;&quot;&gt;- evaluate_best_models&lt;/div&gt;&lt;div style=&quot;text-align: left;&quot;&gt;- analyze_feature_importance_for_best_model&lt;/div&gt;&lt;div style=&quot;text-align: left;&quot;&gt;- perform_shap_analysis&lt;/div&gt;&lt;div style=&quot;text-align: left;&quot;&gt;- save_best_model&lt;/div&gt;&lt;div style=&quot;text-align: left;&quot;&gt;&lt;br&gt;&lt;/div&gt;&lt;/div&gt;&lt;div style=&quot;&quot;&gt;&lt;br&gt;&lt;/div&gt;" style="shape=module;align=center;spacingLeft=20;align=center;verticalAlign=top;whiteSpace=wrap;html=1;fillColor=#dae8fc;strokeColor=#6c8ebf;strokeWidth=2;" vertex="1" parent="1">
          <mxGeometry x="-2808" y="80" width="470" height="240" as="geometry" />
        </mxCell>
        <mxCell id="FoN-SUB8W7ktu8D8JvVk-11" value="AttritionDeskApp Class" style="swimlane;fontStyle=1;align=center;verticalAlign=top;childLayout=stackLayout;horizontal=1;startSize=26;horizontalStack=0;resizeParent=1;resizeParentMax=0;resizeLast=0;collapsible=1;marginBottom=0;whiteSpace=wrap;html=1;fillColor=#dae8fc;strokeColor=#6c8ebf;strokeWidth=2;" vertex="1" parent="1">
          <mxGeometry x="-2800" y="560" width="696.5" height="202" as="geometry" />
        </mxCell>
        <mxCell id="FoN-SUB8W7ktu8D8JvVk-12" value="- model: Model&lt;div&gt;- scaler: sklearn StandardScaler&lt;/div&gt;&lt;div&gt;- encoder: sklearn OneHotEncoder&lt;/div&gt;&lt;div&gt;&lt;br&gt;&lt;/div&gt;" style="text;strokeColor=#6c8ebf;fillColor=#dae8fc;align=left;verticalAlign=top;spacingLeft=4;spacingRight=4;overflow=hidden;rotatable=0;points=[[0,0.5],[1,0.5]];portConstraint=eastwest;whiteSpace=wrap;html=1;strokeWidth=2;" vertex="1" parent="FoN-SUB8W7ktu8D8JvVk-11">
          <mxGeometry y="26" width="696.5" height="54" as="geometry" />
        </mxCell>
        <mxCell id="FoN-SUB8W7ktu8D8JvVk-14" value="+ __init__( )&lt;div&gt;+ make_prediction(input_data: Dict, numerical_features: ndarray, binary_features: ndarray, categorical_features_df: DataFrame)&lt;/div&gt;&lt;div&gt;+ get_statistics( )&lt;/div&gt;&lt;div&gt;+ show_statistics( )&lt;/div&gt;&lt;div&gt;+ start_app( )&lt;/div&gt;&lt;div&gt;+ show_home( )&lt;/div&gt;&lt;div&gt;+ show_prediction( )&lt;/div&gt;" style="text;strokeColor=#6c8ebf;fillColor=#dae8fc;align=left;verticalAlign=top;spacingLeft=4;spacingRight=4;overflow=hidden;rotatable=0;points=[[0,0.5],[1,0.5]];portConstraint=eastwest;whiteSpace=wrap;html=1;strokeWidth=2;" vertex="1" parent="FoN-SUB8W7ktu8D8JvVk-11">
          <mxGeometry y="80" width="696.5" height="122" as="geometry" />
        </mxCell>
        <mxCell id="FoN-SUB8W7ktu8D8JvVk-15" value="provides encoder and scaler to" style="endArrow=open;endSize=12;dashed=1;html=1;rounded=0;exitX=0.5;exitY=1;exitDx=0;exitDy=0;entryX=-0.017;entryY=1;entryDx=0;entryDy=0;entryPerimeter=0;fillColor=#dae8fc;strokeColor=#6c8ebf;strokeWidth=2;" edge="1" parent="1" source="FoN-SUB8W7ktu8D8JvVk-9" target="FoN-SUB8W7ktu8D8JvVk-12">
          <mxGeometry width="160" relative="1" as="geometry">
            <mxPoint x="-800" y="650" as="sourcePoint" />
            <mxPoint x="-2610" y="400" as="targetPoint" />
            <mxPoint as="offset" />
          </mxGeometry>
        </mxCell>
        <mxCell id="FoN-SUB8W7ktu8D8JvVk-17" value="provide processed data to" style="endArrow=open;endSize=12;dashed=1;html=1;rounded=0;exitX=0.5;exitY=0;exitDx=0;exitDy=0;entryX=0;entryY=0.5;entryDx=10;entryDy=0;entryPerimeter=0;fillColor=#dae8fc;strokeColor=#6c8ebf;strokeWidth=2;" edge="1" parent="1" source="FoN-SUB8W7ktu8D8JvVk-9" target="FoN-SUB8W7ktu8D8JvVk-10">
          <mxGeometry width="160" relative="1" as="geometry">
            <mxPoint x="-290" y="380" as="sourcePoint" />
            <mxPoint x="-203" y="479" as="targetPoint" />
          </mxGeometry>
        </mxCell>
        <mxCell id="V-6iyF8QzSeQiB-B7zMn-2" value="provides data to" style="endArrow=open;endSize=12;dashed=1;html=1;rounded=0;exitX=1;exitY=0.5;exitDx=0;exitDy=0;entryX=0;entryY=0.5;entryDx=10;entryDy=0;entryPerimeter=0;fillColor=#dae8fc;strokeColor=#6c8ebf;strokeWidth=2;" edge="1" parent="1" source="FoN-SUB8W7ktu8D8JvVk-7" target="FoN-SUB8W7ktu8D8JvVk-9">
          <mxGeometry width="160" relative="1" as="geometry">
            <mxPoint x="-195" y="370" as="sourcePoint" />
            <mxPoint x="-194" y="490" as="targetPoint" />
          </mxGeometry>
        </mxCell>
        <mxCell id="V-6iyF8QzSeQiB-B7zMn-3" value="provides best model to" style="endArrow=open;endSize=12;dashed=1;html=1;rounded=0;exitX=0.5;exitY=1;exitDx=0;exitDy=0;entryX=0.327;entryY=-0.003;entryDx=0;entryDy=0;fillColor=#dae8fc;strokeColor=#6c8ebf;strokeWidth=2;entryPerimeter=0;" edge="1" parent="1" source="FoN-SUB8W7ktu8D8JvVk-10" target="FoN-SUB8W7ktu8D8JvVk-11">
          <mxGeometry width="160" relative="1" as="geometry">
            <mxPoint x="-2850" y="480" as="sourcePoint" />
            <mxPoint x="-2545" y="520" as="targetPoint" />
            <mxPoint as="offset" />
          </mxGeometry>
        </mxCell>
        <mxCell id="V-6iyF8QzSeQiB-B7zMn-5" value="logs predictions and statistics in" style="endArrow=open;endSize=12;dashed=1;html=1;rounded=0;exitX=0.538;exitY=0;exitDx=0;exitDy=0;exitPerimeter=0;fillColor=#dae8fc;strokeColor=#6c8ebf;strokeWidth=2;entryX=0.5;entryY=1;entryDx=0;entryDy=0;" edge="1" parent="1" source="FoN-SUB8W7ktu8D8JvVk-11" target="WxTnccVXQxGA5uOrfb31-1">
          <mxGeometry width="160" relative="1" as="geometry">
            <mxPoint x="-2230" y="550" as="sourcePoint" />
            <mxPoint x="-1820" y="600" as="targetPoint" />
            <mxPoint as="offset" />
            <Array as="points" />
          </mxGeometry>
        </mxCell>
        <mxCell id="WxTnccVXQxGA5uOrfb31-1" value="Neptune" style="html=1;whiteSpace=wrap;fillColor=#dae8fc;strokeColor=#6c8ebf;strokeWidth=2;fontStyle=1" vertex="1" parent="1">
          <mxGeometry x="-2480" y="389" width="110" height="50" as="geometry" />
        </mxCell>
        <mxCell id="WxTnccVXQxGA5uOrfb31-3" value="logs training metrics and results in" style="endArrow=open;endSize=12;dashed=1;html=1;rounded=0;entryX=0.5;entryY=0;entryDx=0;entryDy=0;fillColor=#dae8fc;strokeColor=#6c8ebf;strokeWidth=2;exitX=0.813;exitY=1.012;exitDx=0;exitDy=0;exitPerimeter=0;" edge="1" parent="1" source="FoN-SUB8W7ktu8D8JvVk-10" target="WxTnccVXQxGA5uOrfb31-1">
          <mxGeometry width="160" relative="1" as="geometry">
            <mxPoint x="-2420" y="320" as="sourcePoint" />
            <mxPoint x="-2073" y="510" as="targetPoint" />
            <mxPoint as="offset" />
          </mxGeometry>
        </mxCell>
      </root>
    </mxGraphModel>
  </diagram>
</mxfile>
